<svg width="100" height="100" fill="none" xmlns="http://www.w3.org/2000/svg"><g clip-path="url(#clip0)" fill="#841A35"><path d="M30 10.001H8.334v3.334H30V10zm0 6.667H8.334V20H30v-3.333zm-6.666 6.666h-15v3.334h15v-3.334zm0 6.666h-15v3.334h15v-3.333zM100 96.667H0V100h100v-3.333zm-3.51-82.411L89.825.923a1.666 1.666 0 00-2.236-.747L74.254 6.843a1.667 1.667 0 001.49 2.983l9.657-4.825-2.635 7.523C71.184 45.51 41.354 68.65 6.526 71.668L6.808 75c36.14-3.13 67.094-27.146 79.105-61.376l2.69-7.686 4.904 9.808a1.668 1.668 0 002.983-1.49zM20 80H8.335c-.92 0-1.667.746-1.667 1.667v10c0 .92.747 1.666 1.667 1.666h11.667c.92 0 1.666-.746 1.666-1.666v-10c0-.92-.746-1.667-1.666-1.667zm-1.666 10h-8.333v-6.666h8.333V90zm20-15H26.667c-.92 0-1.667.747-1.667 1.667v15c0 .92.747 1.666 1.667 1.666h11.667c.92 0 1.666-.746 1.666-1.666v-15c0-.92-.746-1.667-1.666-1.667zm-1.667 15h-8.333V78.334h8.333V90zm20-23.333H45c-.92 0-1.666.746-1.666 1.667v23.333c0 .92.746 1.666 1.666 1.666h11.667c.92 0 1.666-.746 1.666-1.666V68.334c0-.92-.746-1.667-1.666-1.667zM55 90h-8.333V70H55v20z"/><path d="M75 55H63.333c-.92 0-1.666.747-1.666 1.667v35c0 .92.746 1.666 1.666 1.666H75c.92 0 1.666-.746 1.666-1.666v-35c0-.92-.746-1.666-1.666-1.666zm-1.667 35H65V58.334h8.333V90zm20-58.332H81.666c-.92 0-1.666.746-1.666 1.666v58.333c0 .92.746 1.666 1.666 1.666h11.667c.92 0 1.666-.746 1.666-1.666V33.334c0-.92-.746-1.667-1.666-1.667zM91.666 90h-8.333V35h8.333v55z"/></g><defs><clipPath id="clip0"><path fill="#fff" d="M0 0h100v100H0z"/></clipPath></defs></svg>