<svg width="100" height="100" fill="none" xmlns="http://www.w3.org/2000/svg"><g clip-path="url(#clip0)" fill="#841A35"><path d="M94.11 21.955c-5.656-1.2-11.021-2.78-15.945-4.693a1.954 1.954 0 00-1.415 3.641c4.667 1.814 9.707 3.337 15.002 4.534v23.857c0 4.69-2.452 10.933-6.75 17.618v-3.705c0-7.362-3.99-10.998-7.812-13.074a12.397 12.397 0 001.816-6.475c0-6.88-5.6-12.478-12.483-12.478-6.88 0-12.477 5.598-12.477 12.478 0 2.367.662 4.581 1.81 6.468-2.17 1.168-4.348 2.803-5.855 5.336-1.505-2.53-3.682-4.166-5.853-5.334a12.399 12.399 0 001.812-6.47c0-6.88-5.6-12.478-12.483-12.478C26.598 31.18 21 36.779 21 43.658c0 2.369.663 4.585 1.814 6.473-3.821 2.075-7.81 5.711-7.81 13.076v3.714c-4.301-6.688-6.756-12.935-6.756-17.627V25.436C30.614 20.37 41.903 11.061 48.03 6.008c.715-.59 1.373-1.133 1.972-1.606.598.474 1.257 1.017 1.973 1.609 2.286 1.886 5.13 4.234 8.928 6.75a1.953 1.953 0 002.158-3.257c-3.627-2.403-6.384-4.678-8.6-6.506-1.258-1.039-2.346-1.936-3.325-2.635a1.953 1.953 0 00-2.268 0c-.979.698-2.065 1.594-3.323 2.632-6.432 5.303-17.197 14.179-39.658 18.96a1.953 1.953 0 00-1.546 1.911v25.429c0 4.493 1.718 9.854 5.107 15.935 2.99 5.362 7.142 11.002 12.01 16.31C29.645 90.462 41.442 100 50.003 100c8.559 0 20.354-9.537 28.539-18.461a99.322 99.322 0 006.006-7.194c.045-.054 4.368-6.183 6.003-9.116 3.39-6.08 5.107-11.442 5.107-15.935V23.866a1.95 1.95 0 00-1.547-1.91zM66.524 35.087c4.73 0 8.577 3.845 8.577 8.571 0 4.727-3.848 8.572-8.577 8.572-4.726 0-8.571-3.845-8.571-8.572 0-4.726 3.845-8.571 8.57-8.571zM50.003 61.29a5.915 5.915 0 015.908 5.908c0 3.261-2.65 5.914-5.908 5.914-3.258 0-5.908-2.653-5.908-5.913a5.915 5.915 0 015.908-5.909zM33.477 35.087c4.73 0 8.577 3.845 8.577 8.571 0 4.727-3.847 8.572-8.577 8.572-4.726 0-8.57-3.845-8.57-8.572 0-4.726 3.844-8.571 8.57-8.571zm2.233 46.71v7.57C32.002 86.563 28.1 83 24.338 78.898a97.205 97.205 0 01-5.427-6.448v-9.243c0-5.766 3-8.33 6.512-10.03a12.42 12.42 0 008.055 2.959c3.068 0 5.88-1.115 8.056-2.958 2.082 1.01 4.123 2.402 5.344 4.72-3.884 1.307-6.69 4.981-6.69 9.3a9.76 9.76 0 001.172 4.648c-2.835 1.648-5.65 4.474-5.65 9.952zm24.68 10.286c-4.046 2.558-7.678 4.01-10.387 4.01-2.71 0-6.341-1.451-10.387-4.009V81.798c0-3.882 1.952-5.702 4.303-6.902a9.76 9.76 0 006.084 2.123c2.297 0 4.41-.796 6.084-2.123 2.35 1.203 4.303 3.023 4.303 6.902v10.285zm20.705-19.64a97.206 97.206 0 01-5.432 6.456c-3.76 4.1-7.66 7.662-11.367 10.466v-7.567c0-5.474-2.815-8.301-5.65-9.95a9.764 9.764 0 001.172-4.65c0-4.32-2.808-7.994-6.693-9.302 1.224-2.318 3.263-3.71 5.344-4.719a12.42 12.42 0 008.054 2.959 12.43 12.43 0 008.057-2.958c3.513 1.7 6.515 4.265 6.515 10.029v9.236z"/><path d="M68.59 17.247l.01.006a1.952 1.952 0 002.615-.876 1.958 1.958 0 00-.88-2.624 1.953 1.953 0 10-1.746 3.494z"/></g><defs><clipPath id="clip0"><path fill="#fff" d="M0 0h100v100H0z"/></clipPath></defs></svg>