<svg width="30" height="30" fill="none" xmlns="http://www.w3.org/2000/svg"><path d="M25.945 6.744l-3.12-3.117a2.368 2.368 0 00-1.678-.697c-.636 0-1.234.249-1.682.697l-3.358 3.357a2.37 2.37 0 000 3.36l2.456 2.456a11.54 11.54 0 01-2.359 3.401 11.584 11.584 0 01-3.401 2.367l-2.455-2.455a2.367 2.367 0 00-1.68-.697c-.635 0-1.232.249-1.68.697l-3.361 3.355a2.37 2.37 0 00-.697 1.681c0 .636.249 1.234.697 1.682l3.114 3.114a3.85 3.85 0 002.716 1.125c.214 0 .419-.017.621-.052 3.95-.65 7.866-2.751 11.027-5.91 3.159-3.155 5.256-7.069 5.915-11.03a3.856 3.856 0 00-1.075-3.334z" fill="#841A35"/></svg>