<svg width="100" height="100" fill="none" xmlns="http://www.w3.org/2000/svg"><path d="M68.946 67.21a1.954 1.954 0 00-2.762.028l-.056.057a1.953 1.953 0 002.79 2.734l.056-.057a1.953 1.953 0 00-.028-2.762zm21.01-20.476h-5.19v-5.19a1.953 1.953 0 10-3.906 0v5.19h-5.19a1.953 1.953 0 100 3.906h5.19v5.19a1.953 1.953 0 103.906 0v-5.19h5.19a1.953 1.953 0 000-3.906z" fill="#841A35"/><path d="M89.198 32.73C87.374 19.248 76.103 9.16 62.725 9.16c-6.754 0-13.071 2.517-17.998 7.132-4.928-4.615-11.245-7.132-17.998-7.132C11.99 9.16 0 21.436 0 36.525c0 2.982.87 6.323 2.6 10.012h-.647a1.953 1.953 0 100 3.906H4.68c3.648 6.176 9.417 13.199 17.283 21.02 10.66 10.6 21.47 18.893 21.577 18.976a1.95 1.95 0 002.373 0c.082-.064 8.35-6.403 17.511-15.04a1.953 1.953 0 10-2.68-2.843 255.245 255.245 0 01-16.017 13.852c-3.066-2.426-11.602-9.35-20.038-17.742-6.754-6.719-11.924-12.842-15.42-18.223h17.486c.871 0 1.637-.577 1.877-1.414l3.413-11.895 9.45 30.277a1.953 1.953 0 003.729 0l5.233-16.772h8.72a1.953 1.953 0 100-3.907H49.02c-.854 0-1.61.556-1.864 1.372l-3.797 12.169-9.529-30.529a1.953 1.953 0 00-3.742.043l-4.805 16.75H6.958c-2.02-3.812-3.052-7.171-3.052-10.012 0-12.935 10.238-23.459 22.823-23.459 6.325 0 12.207 2.6 16.562 7.321a1.953 1.953 0 002.871 0c4.355-4.72 10.238-7.32 16.563-7.32 10.88 0 20.13 7.846 22.329 18.578a17.286 17.286 0 00-2.242-.146c-9.477 0-17.187 7.71-17.187 17.188 0 9.477 7.71 17.187 17.188 17.187 9.477 0 17.187-7.71 17.187-17.187 0-7.222-4.477-13.417-10.802-15.957zm-6.385 29.238c-7.324 0-13.282-5.958-13.282-13.281s5.958-13.281 13.282-13.281c7.323 0 13.28 5.958 13.28 13.28 0 7.324-5.957 13.282-13.28 13.282z" fill="#841A35"/></svg>