<svg width="100" height="100" fill="none" xmlns="http://www.w3.org/2000/svg"><g clip-path="url(#clip0)" fill="#841A35"><path d="M99.593 42.648L82.855 20.906a1.961 1.961 0 00-2.606-.458l-10.806 6.873H55.349a1.94 1.94 0 00-.54.09l-10.927 3.145-11.339-3.1-11.017-7.008a1.96 1.96 0 00-2.578.423L.435 43.8a1.96 1.96 0 00.247 2.718l9.703 8.35L19.09 66.6c-2.546 2.712-2.496 6.99.153 9.64a6.9 6.9 0 004.203 1.99c-.053.348-.08.701-.08 1.06 0 1.85.72 3.59 2.029 4.9a6.885 6.885 0 004.9 2.03c.025 0 .05-.002.074-.003l-.003.141c0 1.851.72 3.592 2.03 4.9a6.887 6.887 0 004.9 2.03c.365 0 .727-.03 1.081-.085a6.894 6.894 0 001.993 4.22 6.905 6.905 0 004.9 2.026c1.774 0 3.55-.675 4.9-2.026l1.06-1.06.445.358a6.905 6.905 0 004.819 1.947 6.905 6.905 0 004.9-2.027 6.91 6.91 0 002.025-5.008 6.916 6.916 0 007.034-7.03 6.89 6.89 0 005.008-2.03 6.909 6.909 0 002.026-5.008 6.91 6.91 0 005.008-2.026c2.353-2.353 2.656-5.99.911-8.675l6.356-13.311 9.556-8.223c.79-.68.91-1.858.275-2.683zm-78.694-17.95l7.922 5.037L11.587 50.73 4.68 44.787l16.218-20.09zm1.117 44.515l2.391-2.391a3.002 3.002 0 011.86-.868c.017-.002.035-.002.052-.003a2.99 2.99 0 012.402.932c1.108 1.171 1.048 3.085-.133 4.266l-2.318 2.318a3.01 3.01 0 01-4.254 0 3.012 3.012 0 010-4.254zm6.152 12.204a2.986 2.986 0 01-.881-2.126c0-.804.313-1.559.88-2.127l4.637-4.637a3.04 3.04 0 013.42-.59c1.17.558 1.829 1.828 1.657 3.106a3.174 3.174 0 01-.896 1.812l-4.563 4.562a2.988 2.988 0 01-2.127.881 2.988 2.988 0 01-2.127-.88zm7 7.069a2.985 2.985 0 01-.88-2.127c0-.803.312-1.558.88-2.127l4.636-4.636c.95-.95 2.474-1.154 3.636-.477a2.993 2.993 0 011.436 3.04 3.184 3.184 0 01-.89 1.764l-4.563 4.563a2.988 2.988 0 01-2.127.88 2.988 2.988 0 01-2.127-.88zm7.975 6.164a3.011 3.011 0 010-4.253l2.39-2.391a3.36 3.36 0 01.227-.205l.005-.004c.39-.316.846-.527 1.334-.62l.034-.004c.084-.016.17-.028.255-.035.034-.004.069-.004.104-.006.07-.004.14-.008.21-.007a2.989 2.989 0 012.34 1.17c.901 1.179.78 2.93-.34 4.05l-2.306 2.306a3.011 3.011 0 01-4.253 0zm36.579-21.883a3.01 3.01 0 01-4.253 0 1.802 1.802 0 00-.134-.12L62.727 59.906a1.96 1.96 0 00-2.788 2.759l12.745 12.877.004.005a3.012 3.012 0 010 4.254 2.989 2.989 0 01-2.127.881 2.99 2.99 0 01-2.127-.88l-8.526-8.615a1.96 1.96 0 10-2.787 2.759l8.396 8.482c.043.053.088.105.137.153a3.012 3.012 0 010 4.254 3.013 3.013 0 01-4.255 0l-4.653-4.702a1.96 1.96 0 10-2.788 2.758l4.524 4.57c.042.053.088.105.138.154a3.012 3.012 0 010 4.254 3.01 3.01 0 01-4.254 0c-.135-.135-.293-.239-.444-.355-.128-.097-.162-.165-.098-.321.065-.158.162-.3.227-.46.071-.176.13-.359.186-.542.3-.969.389-2.01.254-3.016a6.9 6.9 0 00-2.93-4.773 6.884 6.884 0 00-2.916-1.13c.505-2.228-.101-4.644-1.68-6.31a6.878 6.878 0 00-5.145-2.168c.042-1.8-.613-3.59-1.854-4.901a6.88 6.88 0 00-4.94-2.168 7.053 7.053 0 00-1.673.178 6.877 6.877 0 00-2.291-4.202 6.874 6.874 0 00-4.432-1.682 6.945 6.945 0 00-4.734 1.781l-7.58-10.213 18.133-22.092 5.78 1.58-7.548 13.32a6.883 6.883 0 00-.65 5.263 6.883 6.883 0 003.592 4.356 6.883 6.883 0 004.935.475 6.886 6.886 0 004.181-3.262l4.905-8.655 8.758.62 23.32 23.32a3.013 3.013 0 010 4.255zm.813-8.988L58.656 41.902a1.962 1.962 0 00-1.247-.57l-10.723-.76a1.993 1.993 0 00-1.845.99l-5.515 9.732a2.989 2.989 0 01-1.815 1.416 2.989 2.989 0 01-2.285-.282 2.989 2.989 0 01-1.416-1.815 2.985 2.985 0 01.283-2.285l7.361-12.992 2.983-.859.059-.02 11.134-3.215h13.452l16.794 21.349-5.343 11.188zm7.91-14.266L72.915 29.76l7.926-5.04 14.512 18.85-6.908 5.943z"/><path d="M60.582 23.639c.502 0 1.004-.191 1.387-.575L75.364 9.67a1.96 1.96 0 10-2.774-2.773L59.196 20.291a1.96 1.96 0 001.386 3.348zm-22.552-.575c.383.384.885.575 1.387.575s1.003-.191 1.386-.575a1.96 1.96 0 000-2.773L27.41 6.897a1.96 1.96 0 10-2.773 2.773L38.03 23.064zM50 23.64c1.083 0 1.961-.88 1.961-1.962V10.594a1.961 1.961 0 00-3.921 0v11.084A1.96 1.96 0 0050 23.639zM48.19 3.487a1.972 1.972 0 001.906 1.207 1.98 1.98 0 001.77-1.358 1.976 1.976 0 00-.672-2.155 1.982 1.982 0 00-2.282-.075 1.975 1.975 0 00-.721 2.38z"/></g><defs><clipPath id="clip0"><path fill="#fff" d="M0 0h100v100H0z"/></clipPath></defs></svg>